<svg id="adobecc-icon" xmlns="http://www.w3.org/2000/svg" viewBox="0 0 277 204.83"><defs><style>.cls-1{fill:none;stroke:#ff505d;stroke-miterlimit:10;stroke-width:2px;}</style></defs><path class="cls-1" d="M277.16,105.49a100.77,100.77,0,0,0-38-41.84,96.93,96.93,0,0,0-35.22-13.37c-4-.68-8.15-1-12.23-1.45-.54-.06-1.08-.16-1.61-.24h-8.24c-2.68.27-5.35.52-8,.83A98.28,98.28,0,0,0,141.44,59a101.65,101.65,0,0,0-28.16,20.4,2.18,2.18,0,0,1-1.63.53,92.82,92.82,0,0,0-17.23-.79,84,84,0,0,0-33.54,8.67Q30.4,103,18.05,134.87a81.06,81.06,0,0,0-5.29,24.51,10.39,10.39,0,0,1-.26,1.46v8.79l.81,6.78a81.25,81.25,0,0,0,8,26.71,85.62,85.62,0,0,0,43.45,41.29,82.69,82.69,0,0,0,28,6.74,12.22,12.22,0,0,1,1.47.26H190.9c2.49-.27,5-.53,7.46-.82a97.59,97.59,0,0,0,32.23-9.51,100.82,100.82,0,0,0,41.77-37.85,96.45,96.45,0,0,0,13.47-35.43c.65-3.91.95-7.87,1.42-11.81.06-.49.16-1,.25-1.46v-9.05c-.27-2.58-.53-5.16-.82-7.75A97.43,97.43,0,0,0,277.16,105.49ZM125.41,232.22H99.07A66.63,66.63,0,0,1,33.86,179.9c-7.56-33.72,11.81-67.9,44.9-78,24.61-7.48,46.86-2.25,65.73,15.35,9.73,9.07,18.85,18.78,28.2,28.25a8.56,8.56,0,0,1,2,9.51c-1.31,3.56-4.2,5.29-7.83,5.81a8,8,0,0,1-7.17-2.59c-8.9-9-18-17.84-26.79-26.94a46.64,46.64,0,0,0-26.07-13.49c-22.38-4-45.07,9-53.27,30.24-10.39,27,6,57.64,34.18,64,5.68,1.28,11.44,1.25,17.19,1.11a4.66,4.66,0,0,1,3.67,1.55c5.68,5.5,11.47,10.89,17.22,16.32l1.14,1.07C126.28,232.18,125.85,232.22,125.41,232.22Zm141.88-71.13a82.56,82.56,0,0,1-63.9,69.47,82.82,82.82,0,0,1-29.28,1.16c-12.53-1.66-24.1-5.78-34.37-13.23a68.06,68.06,0,0,1-7.71-6.57C118,198.1,104,184.16,90,170.35c-3.54-3.47-3.75-7.3-2.12-10.69a9.52,9.52,0,0,1,9.9-5.4,10.22,10.22,0,0,1,6,3.35q18.93,19,37.86,38A59.56,59.56,0,0,0,177,213.24c22.29,2.92,41.22-4,56.34-20.65,8.29-9.15,13.16-20.07,15.25-32.24,3.1-18.16-1.19-34.48-12.44-48.91a63.47,63.47,0,0,0-84.42-14.53,1.73,1.73,0,0,1-1.51.11A109.18,109.18,0,0,0,134,87.25c-.07,0-.11-.14-.27-.36a79.57,79.57,0,0,1,14.38-9.57,77.23,77.23,0,0,1,30.27-8.91c27.74-2.07,51.05,7.22,69.58,28a79.07,79.07,0,0,1,18.57,38.06A81.08,81.08,0,0,1,267.29,161.09Z" transform="translate(-11.5 -47.59)"/></svg>