<svg id="bootstrap-icon" xmlns="http://www.w3.org/2000/svg" viewBox="0 0 235.33 235.33"><defs><style>.cls-1{fill:#3a3a3a;stroke:#ad9fe2;stroke-miterlimit:10;stroke-width:2px;}</style></defs><path class="cls-1" d="M185.94,179.07c0,22.09-20.69,21.58-22.88,21.58H120.93V158.1h42.13C185.23,158.1,185.94,174.71,185.94,179.07ZM159.82,141c.34,0,20,.52,20-18.91,0-8.09-1.83-18.69-20-18.69H120.93V141ZM267,72.16V227.71a39,39,0,0,1-38.89,38.89H72.59A39,39,0,0,1,33.7,227.71V72.16A39,39,0,0,1,72.59,33.27H228.14A39,39,0,0,1,267,72.16Zm-57.27,110c0-11.24-3.46-30.36-25.54-35.08v-.38c11.93-5.1,19.44-14.72,19.44-29,0-3.65,1.05-33.74-40.41-33.74H97.1V220.09c66.79,0,72.85.87,85.21-3C189.71,214.81,209.76,207.75,209.76,182.16Z" transform="translate(-32.7 -32.27)"/></svg>