<svg id="github-icon" xmlns="http://www.w3.org/2000/svg" viewBox="0 0 150 146.3"><defs><style>.cls-1{fill:#fff;fill-rule:evenodd;}</style></defs><path class="cls-1" d="M150.2,77.27a75,75,0,0,0-23.71,146.17c3.75.69,5.12-1.63,5.12-3.62,0-1.78-.06-6.49-.1-12.75C110.65,211.6,106.25,197,106.25,197c-3.41-8.66-8.33-11-8.33-11-6.81-4.65.52-4.56.52-4.56,7.52.53,11.48,7.73,11.48,7.73,6.69,11.46,17.56,8.15,21.83,6.23.68-4.84,2.62-8.15,4.76-10-16.65-1.9-34.16-8.33-34.16-37.07a29,29,0,0,1,7.72-20.13c-.77-1.89-3.35-9.52.73-19.84,0,0,6.3-2,20.63,7.68a71.2,71.2,0,0,1,37.55,0c14.32-9.7,20.61-7.68,20.61-7.68,4.09,10.32,1.51,18,.74,19.84A29,29,0,0,1,198,148.35c0,28.81-17.53,35.15-34.24,37,2.69,2.31,5.09,6.89,5.09,13.89,0,10-.09,18.11-.09,20.57,0,2,1.35,4.34,5.15,3.61A75,75,0,0,0,150.2,77.27Z" transform="translate(-75.2 -77.27)"/></svg>