<svg xmlns="http://www.w3.org/2000/svg" viewBox="0 0 1920 600"><defs><style>.cls-1,.cls-2,.cls-4,.cls-5,.cls-6,.cls-7{fill:#333;}.cls-2{stroke:gray;}.cls-2,.cls-3,.cls-4,.cls-5,.cls-6,.cls-7{stroke-miterlimit:10;}.cls-3{fill:#3a3a3a;}.cls-3,.cls-5{stroke:#b3b3b3;}.cls-4{stroke:#e4d2a1;}.cls-6{stroke:#a1e2c7;}.cls-7{stroke:#ccc;}</style></defs><g id="bg"><rect class="cls-1" width="1920" height="600"/></g><g id="Design"><path class="cls-2" d="M1624.44,299.59l104-104H1588.67l69.88-69.89H1518.79l69.88-69.88H1239.26l70,70H1169.38l69.76,69.77H1099.5l104,104-104,104h139.64l-69.76,69.77h139.88l-70,70h349.41l-69.88-69.89h139.76l-69.88-69.88h139.76Zm-279.41,0,69-69,69,69-69,69Z"/><path class="cls-3" d="M1483.85,368.65h139.76l-69.88-69.88,69.88-69.88H1483.85L1553.73,159H1274.2l69.88,69.88H1204.32l69.88,69.88-69.88,69.88h139.76l-69.88,69.88h279.53l-69.88-69.88ZM1414,298.77Z"/><rect class="cls-4" x="1389.26" y="274.06" width="49.41" height="49.41" transform="translate(202.88 1087.33) rotate(-45)"/><polygon class="cls-4" points="1379.03 333.71 1413.97 368.65 1344.08 368.65 1379.03 333.71"/><polygon class="cls-5" points="1448.91 333.71 1483.85 368.65 1413.97 368.65 1448.91 333.71"/><polygon class="cls-6" points="1483.85 298.77 1518.79 333.71 1448.91 333.71 1483.85 298.77"/><polygon class="cls-5" points="1344.08 298.77 1379.03 333.71 1309.14 333.71 1344.08 298.77"/><polygon class="cls-6" points="1448.91 263.83 1413.97 228.89 1483.85 228.89 1448.91 263.83"/><polygon class="cls-5" points="1379.03 263.83 1344.08 228.89 1413.97 228.89 1379.03 263.83"/><polygon class="cls-6" points="1344.08 298.77 1309.14 263.83 1379.03 263.83 1344.08 298.77"/><polygon class="cls-5" points="1483.85 298.77 1448.91 263.83 1518.79 263.83 1483.85 298.77"/><polygon class="cls-6" points="1413.97 368.65 1448.91 403.59 1379.03 403.59 1413.97 368.65"/><polygon class="cls-4" points="1413.97 228.89 1379.03 193.95 1448.91 193.95 1413.97 228.89"/><polygon class="cls-3" points="1413.97 438.53 1483.85 508.42 1344.08 508.42 1413.97 438.53"/><polygon class="cls-3" points="1413.97 159.01 1344.08 89.12 1483.85 89.12 1413.97 159.01"/><rect class="cls-4" x="1703.73" y="274.06" width="49.41" height="49.41" transform="translate(294.98 1309.7) rotate(-45)"/><rect class="cls-4" x="1074.79" y="274.89" width="49.41" height="49.41" transform="translate(110.19 865.21) rotate(-45)"/><polygon class="cls-6" points="1763.25 298.77 1798.19 263.83 1798.19 333.71 1763.25 298.77"/><polygon class="cls-7" points="1798.19 298.52 1833.13 263.58 1833.13 333.46 1798.19 298.52"/><polygon class="cls-4" points="1833.13 298.52 1868.07 263.58 1868.07 333.46 1833.13 298.52"/></g></svg>