<svg xmlns="http://www.w3.org/2000/svg" xmlns:xlink="http://www.w3.org/1999/xlink" viewBox="0 0 1920 700"><defs><style>.cls-1,.cls-10,.cls-11,.cls-12,.cls-13,.cls-6{fill:none;}.cls-2,.cls-4,.cls-7,.cls-8,.cls-9{fill:#333;}.cls-3{clip-path:url(#clip-path);}.cls-4{stroke:gray;}.cls-10,.cls-11,.cls-12,.cls-13,.cls-4,.cls-6,.cls-7,.cls-8,.cls-9{stroke-miterlimit:10;}.cls-5{fill:#3a3a3a;}.cls-6,.cls-8{stroke:#b3b3b3;}.cls-12,.cls-7{stroke:#e4d2a1;}.cls-10,.cls-9{stroke:#a1e2c7;}.cls-11{stroke:#ccc;}.cls-13{stroke:#3a3a3a;stroke-width:3px;}</style><clipPath id="clip-path"><rect class="cls-1" width="1920" height="700"/></clipPath></defs><g id="bg"><rect class="cls-2" width="1920" height="700"/></g><g id="Design"><g class="cls-3"><path id="outer" class="cls-4" d="M1569,349.59,1671.39,247.2H1533.78l68.81-68.8H1465l68.8-68.81h-344l68.92,68.92H1121l68.69,68.69H1052.16l102.39,102.39L1052.16,452h137.49L1121,520.68h137.72l-68.92,68.91h344l-68.8-68.8h137.61L1533.78,452h137.61Zm-275.1,0,67.93-67.93,67.94,67.93-67.94,67.94Z"/><g id="inner-bg"><path class="cls-5" d="M1430.58,417.59h137.6l-68.8-68.81,68.8-68.8h-137.6l68.8-68.8H1224.17L1293,280H1155.36l68.81,68.8-68.81,68.81H1293l-68.8,68.8h275.21l-68.8-68.8Zm-68.81-68.81Z"/><polygon class="cls-5" points="1361.77 486.39 1430.58 555.19 1292.97 555.19 1361.77 486.39"/><polygon class="cls-5" points="1361.77 211.18 1292.97 142.37 1430.58 142.37 1361.77 211.18"/></g><g id="inner"><path class="cls-6" d="M1430.58,417.59h137.6l-68.8-68.81,68.8-68.8h-137.6l68.8-68.8H1224.17L1293,280H1155.36l68.81,68.8-68.81,68.81H1293l-68.8,68.8h275.21l-68.8-68.8Zm-68.81-68.81Z"/><polygon class="cls-6" points="1361.77 486.39 1430.58 555.19 1292.97 555.19 1361.77 486.39"/><polygon class="cls-6" points="1361.77 211.18 1292.97 142.37 1430.58 142.37 1361.77 211.18"/></g><g id="colored"><rect class="cls-7" x="1337.45" y="324.46" width="48.65" height="48.65" transform="translate(152.23 1065.08) rotate(-45)"/><polygon class="cls-7" points="1327.37 383.18 1361.77 417.59 1292.97 417.59 1327.37 383.18"/><polygon class="cls-8" points="1396.17 383.18 1430.58 417.59 1361.77 417.59 1396.17 383.18"/><polygon class="cls-9" points="1430.58 348.78 1464.98 383.18 1396.17 383.18 1430.58 348.78"/><polygon class="cls-8" points="1292.97 348.78 1327.37 383.18 1258.57 383.18 1292.97 348.78"/><polygon class="cls-9" points="1396.17 314.38 1361.77 279.98 1430.58 279.98 1396.17 314.38"/><polygon class="cls-8" points="1327.37 314.38 1292.97 279.98 1361.77 279.98 1327.37 314.38"/><polygon class="cls-9" points="1292.97 348.78 1258.57 314.38 1327.37 314.38 1292.97 348.78"/><polygon class="cls-8" points="1430.58 348.78 1396.17 314.38 1464.98 314.38 1430.58 348.78"/><polygon class="cls-9" points="1361.77 417.59 1396.17 451.99 1327.37 451.99 1361.77 417.59"/><polygon class="cls-7" points="1361.77 279.98 1327.37 245.58 1396.17 245.58 1361.77 279.98"/><rect class="cls-7" x="1647.06" y="324.46" width="48.65" height="48.65" transform="translate(242.91 1284.01) rotate(-45)"/><rect class="cls-7" x="1027.83" y="325.27" width="48.65" height="48.65" transform="translate(60.97 846.38) rotate(-45)"/></g><path id="outer-2" data-name="outer" class="cls-4" d="M709-62.47,811.4-164.86H673.8l68.8-68.8H605l68.81-68.81h-344l68.92,68.92H261l68.68,68.69H192.17L294.57-62.47,192.17,39.93H329.66L261,108.61H398.7l-68.92,68.92h344L605,108.73H742.6l-68.8-68.8H811.4Zm-275.1,0,67.94-67.93,67.93,67.93L501.85,5.47Z"/><g id="inner-bg-2" data-name="inner-bg"><path class="cls-5" d="M570.59,5.52H708.2l-68.8-68.8,68.8-68.8H570.59l68.81-68.81H364.18L433-132.08H295.38l68.8,68.8-68.8,68.8H433L364.18,74.33H639.4L570.59,5.52Zm-68.8-68.8Z"/><polygon class="cls-5" points="501.79 74.33 570.59 143.13 432.99 143.13 501.79 74.33"/></g><g id="inner-2" data-name="inner"><path class="cls-6" d="M570.59,5.52H708.2l-68.8-68.8,68.8-68.8H570.59l68.81-68.81H364.18L433-132.08H295.38l68.8,68.8-68.8,68.8H433L364.18,74.33H639.4L570.59,5.52Zm-68.8-68.8Z"/><polygon class="cls-6" points="501.79 74.33 570.59 143.13 432.99 143.13 501.79 74.33"/></g><g id="colored-2" data-name="colored"><polygon class="cls-7" points="467.39 -28.88 501.79 5.52 432.99 5.52 467.39 -28.88"/><polygon class="cls-8" points="536.19 -28.88 570.59 5.52 501.79 5.52 536.19 -28.88"/><polygon class="cls-9" points="501.79 5.52 536.19 39.92 467.39 39.92 501.79 5.52"/></g><path id="outer-3" data-name="outer" class="cls-4" d="M709,764.79l102.4-102.4H673.74l68.8-68.8H604.94l68.8-68.8h-344l68.92,68.92H260.92l68.69,68.68H192.12l102.39,102.4L192.12,867.18H329.61l-68.69,68.69H398.64l-68.92,68.92h344L604.94,936h137.6l-68.8-68.8H811.35Zm-275.09,0,67.93-67.94,67.93,67.94-67.93,67.93Z"/><g id="inner-bg-3" data-name="inner-bg"><path class="cls-5" d="M570.53,832.78H708.14L639.34,764l68.8-68.8H570.53l68.81-68.8H364.12l68.81,68.8H295.32l68.8,68.8-68.8,68.81H432.93l-68.81,68.8H639.34l-68.81-68.8ZM501.73,764Z"/><polygon class="cls-5" points="501.73 626.37 432.93 557.57 570.53 557.57 501.73 626.37"/></g><g id="inner-3" data-name="inner"><path class="cls-6" d="M570.53,832.78H708.14L639.34,764l68.8-68.8H570.53l68.81-68.8H364.12l68.81,68.8H295.32l68.8,68.8-68.8,68.81H432.93l-68.81,68.8H639.34l-68.81-68.8ZM501.73,764Z"/><polygon class="cls-6" points="501.73 626.37 432.93 557.57 570.53 557.57 501.73 626.37"/></g><g id="colored-3" data-name="colored"><polygon class="cls-9" points="536.13 729.57 501.73 695.17 570.53 695.17 536.13 729.57"/><polygon class="cls-8" points="467.33 729.57 432.93 695.17 501.73 695.17 467.33 729.57"/><polygon class="cls-7" points="501.73 695.17 467.33 660.77 536.13 660.77 501.73 695.17"/></g><g id="arrows"><polygon class="cls-10" points="272.42 348.66 238.02 383.06 238.02 314.26 272.42 348.66"/><polygon class="cls-11" points="238.02 348.9 203.62 383.31 203.62 314.5 238.02 348.9"/><polygon class="cls-12" points="203.62 348.9 169.22 383.31 169.22 314.5 203.62 348.9"/></g><rect class="cls-13" x="946.77" y="-65" width="830" height="830" transform="translate(646.34 -860.41) rotate(45)"/><polygon class="cls-13" points="1088.75 -63.28 501.85 -650.18 -85.05 -63.28 328.92 350.69 -85.17 764.79 501.73 1351.69 1088.63 764.79 674.65 350.81 1088.75 -63.28"/><polygon class="cls-13" points="2810.9 -64.03 2224 -650.93 1637.1 -64.03 2051.08 349.94 1636.99 764.03 2223.89 1350.93 2810.78 764.03 2396.81 350.06 2810.9 -64.03"/></g></g></svg>