<svg xmlns="http://www.w3.org/2000/svg" xmlns:xlink="http://www.w3.org/1999/xlink" viewBox="0 0 800 700"><defs><style>.cls-1,.cls-10,.cls-11,.cls-12,.cls-13,.cls-6{fill:none;}.cls-2,.cls-4,.cls-7,.cls-8,.cls-9{fill:#333;}.cls-3{clip-path:url(#clip-path);}.cls-4{stroke:gray;}.cls-10,.cls-11,.cls-12,.cls-13,.cls-4,.cls-6,.cls-7,.cls-8,.cls-9{stroke-miterlimit:10;}.cls-5{fill:#3a3a3a;}.cls-6,.cls-8{stroke:#b3b3b3;}.cls-13,.cls-7{stroke:#e4d2a1;}.cls-11,.cls-9{stroke:#a1e2c7;}.cls-10{stroke:#3a3a3a;stroke-width:3px;}.cls-12{stroke:#ccc;}</style><clipPath id="clip-path"><rect class="cls-1" width="800" height="700"/></clipPath></defs><g id="bg_mobile" data-name="bg mobile"><rect class="cls-2" width="800" height="700"/></g><g id="design-mobile"><g class="cls-3"><path id="outer" class="cls-4" d="M1145,349.59,1247.39,247.2H1109.78l68.81-68.8H1041l68.8-68.81h-344l68.92,68.92H697l68.69,68.69H628.16L730.55,349.59,628.16,452H765.65L697,520.68H834.68l-68.92,68.91h344l-68.8-68.8h137.61L1109.78,452h137.61Zm-275.1,0,67.93-67.93,67.94,67.93-67.94,67.94Z"/><g id="inner-bg"><path class="cls-5" d="M1006.58,417.59h137.6l-68.8-68.81,68.8-68.8h-137.6l68.8-68.8H800.17L869,280H731.36l68.81,68.8-68.81,68.81H869l-68.8,68.8h275.21l-68.8-68.8Zm-68.81-68.81Z"/></g><g id="inner"><path class="cls-6" d="M1006.58,417.59h137.6l-68.8-68.81,68.8-68.8h-137.6l68.8-68.8H800.17L869,280H731.36l68.81,68.8-68.81,68.81H869l-68.8,68.8h275.21l-68.8-68.8Zm-68.81-68.81Z"/></g><path id="outer-2" data-name="outer" class="cls-4" d="M303-62.47,405.4-164.86H267.8l68.8-68.8H199l68.81-68.81h-344L-7.3-233.55H-145l68.68,68.69H-213.83l102.4,102.39-102.4,102.4H-76.34L-145,108.61H-7.3l-68.92,68.92h344L199,108.73H336.6l-68.8-68.8H405.4Zm-275.1,0L95.85-130.4l67.93,67.93L95.85,5.47Z"/><g id="inner-bg-2" data-name="inner-bg"><path class="cls-5" d="M164.59,5.52H302.2l-68.8-68.8,68.8-68.8H164.59l68.81-68.81H-41.82L27-132.08H-110.62l68.8,68.8-68.8,68.8H27L-41.82,74.33H233.4L164.59,5.52Zm-68.8-68.8Z"/><polygon class="cls-5" points="95.79 74.33 164.59 143.13 26.99 143.13 95.79 74.33"/></g><g id="inner-2" data-name="inner"><path class="cls-6" d="M164.59,5.52H302.2l-68.8-68.8,68.8-68.8H164.59l68.81-68.81H-41.82L27-132.08H-110.62l68.8,68.8-68.8,68.8H27L-41.82,74.33H233.4L164.59,5.52Zm-68.8-68.8Z"/><polygon class="cls-6" points="95.79 74.33 164.59 143.13 26.99 143.13 95.79 74.33"/></g><g id="colored"><polygon class="cls-7" points="61.39 -28.88 95.79 5.52 26.99 5.52 61.39 -28.88"/><polygon class="cls-8" points="130.19 -28.88 164.59 5.52 95.79 5.52 130.19 -28.88"/><polygon class="cls-9" points="95.79 5.52 130.19 39.92 61.39 39.92 95.79 5.52"/></g><path id="outer-3" data-name="outer" class="cls-4" d="M303,764.79l102.4-102.4H267.74l68.8-68.8H198.94l68.8-68.8h-344l68.92,68.92H-145.08l68.69,68.68H-213.88l102.39,102.4L-213.88,867.18H-76.39l-68.69,68.69H-7.36l-68.92,68.92h344L198.94,936h137.6l-68.8-68.8H405.35Zm-275.09,0,67.93-67.94,67.93,67.94L95.79,832.72Z"/><g id="inner-bg-3" data-name="inner-bg"><path class="cls-5" d="M164.53,832.78H302.14L233.34,764l68.8-68.8H164.53l68.81-68.8H-41.88l68.81,68.8H-110.68l68.8,68.8-68.8,68.81H26.93l-68.81,68.8H233.34l-68.81-68.8ZM95.73,764Z"/><polygon class="cls-5" points="95.73 626.37 26.93 557.57 164.53 557.57 95.73 626.37"/></g><g id="inner-3" data-name="inner"><path class="cls-6" d="M164.53,832.78H302.14L233.34,764l68.8-68.8H164.53l68.81-68.8H-41.88l68.81,68.8H-110.68l68.8,68.8-68.8,68.81H26.93l-68.81,68.8H233.34l-68.81-68.8ZM95.73,764Z"/><polygon class="cls-6" points="95.73 626.37 26.93 557.57 164.53 557.57 95.73 626.37"/></g><g id="colored-2" data-name="colored"><polygon class="cls-9" points="130.13 729.57 95.73 695.17 164.53 695.17 130.13 729.57"/><polygon class="cls-8" points="61.33 729.57 26.93 695.17 95.73 695.17 61.33 729.57"/><polygon class="cls-7" points="95.73 695.17 61.33 660.77 130.13 660.77 95.73 695.17"/></g><rect class="cls-10" x="522.77" y="-65" width="830" height="830" transform="translate(522.15 -560.59) rotate(45)"/><polygon class="cls-10" points="682.75 -63.28 95.85 -650.18 -491.05 -63.28 -77.08 350.69 -491.17 764.79 95.73 1351.69 682.63 764.79 268.65 350.81 682.75 -63.28"/><g id="arrows"><polygon class="cls-11" points="556.75 555.67 522.35 590.07 522.35 521.26 556.75 555.67"/><polygon class="cls-12" points="522.35 555.91 487.95 590.31 487.95 521.51 522.35 555.91"/><polygon class="cls-13" points="487.95 555.91 453.55 590.31 453.55 521.51 487.95 555.91"/></g></g></g></svg>