<svg xmlns="http://www.w3.org/2000/svg" xmlns:xlink="http://www.w3.org/1999/xlink" viewBox="0 0 1920 700"><defs><style>.cls-1{fill:none;}.cls-2,.cls-3,.cls-5,.cls-6,.cls-7,.cls-8{fill:#333;}.cls-3{stroke:gray;}.cls-3,.cls-4,.cls-5,.cls-6,.cls-7,.cls-8{stroke-miterlimit:10;}.cls-4{fill:#3a3a3a;}.cls-4,.cls-6{stroke:#b3b3b3;}.cls-5{stroke:#e4d2a1;}.cls-7{stroke:#a1e2c7;}.cls-8{stroke:#ccc;}.cls-9{clip-path:url(#clip-path);}</style><clipPath id="clip-path"><rect class="cls-1" width="1920" height="700"/></clipPath></defs><g id="bg"><rect class="cls-2" width="1920" height="700"/></g><g id="Design"><path class="cls-3" d="M1609,349.59,1711.39,247.2H1573.78l68.81-68.8H1505l68.8-68.81h-344l68.92,68.92H1161l68.69,68.69H1092.16l102.39,102.39L1092.16,452h137.49L1161,520.68h137.72l-68.92,68.91h344l-68.8-68.8h137.61L1573.78,452h137.61Zm-275.1,0,67.93-67.93,67.94,67.93-67.94,67.94Z"/><path class="cls-4" d="M1470.58,417.59h137.6l-68.8-68.81,68.8-68.8h-137.6l68.8-68.8H1264.17L1333,280H1195.36l68.81,68.8-68.81,68.81H1333l-68.8,68.8h275.21l-68.8-68.8Zm-68.81-68.81Z"/><rect class="cls-5" x="1377.45" y="324.46" width="48.65" height="48.65" transform="translate(163.94 1093.36) rotate(-45)"/><polygon class="cls-5" points="1367.37 383.18 1401.77 417.59 1332.97 417.59 1367.37 383.18"/><polygon class="cls-6" points="1436.17 383.18 1470.58 417.59 1401.77 417.59 1436.17 383.18"/><polygon class="cls-7" points="1470.58 348.78 1504.98 383.18 1436.17 383.18 1470.58 348.78"/><polygon class="cls-6" points="1332.97 348.78 1367.37 383.18 1298.57 383.18 1332.97 348.78"/><polygon class="cls-7" points="1436.17 314.38 1401.77 279.98 1470.58 279.98 1436.17 314.38"/><polygon class="cls-6" points="1367.37 314.38 1332.97 279.98 1401.77 279.98 1367.37 314.38"/><polygon class="cls-7" points="1332.97 348.78 1298.57 314.38 1367.37 314.38 1332.97 348.78"/><polygon class="cls-6" points="1470.58 348.78 1436.17 314.38 1504.98 314.38 1470.58 348.78"/><polygon class="cls-7" points="1401.77 417.59 1436.17 451.99 1367.37 451.99 1401.77 417.59"/><polygon class="cls-5" points="1401.77 279.98 1367.37 245.58 1436.17 245.58 1401.77 279.98"/><polygon class="cls-4" points="1401.77 486.39 1470.58 555.19 1332.97 555.19 1401.77 486.39"/><polygon class="cls-4" points="1401.77 211.18 1332.97 142.37 1470.58 142.37 1401.77 211.18"/><rect class="cls-5" x="1687.06" y="324.46" width="48.65" height="48.65" transform="translate(254.63 1312.29) rotate(-45)"/><rect class="cls-5" x="1067.83" y="325.27" width="48.65" height="48.65" transform="translate(72.69 874.67) rotate(-45)"/><polygon class="cls-7" points="1745.67 348.78 1780.07 314.38 1780.07 383.18 1745.67 348.78"/><polygon class="cls-8" points="1780.07 348.54 1814.47 314.14 1814.47 382.94 1780.07 348.54"/><polygon class="cls-5" points="1814.47 348.54 1848.87 314.14 1848.87 382.94 1814.47 348.54"/></g><g id="Design2"><g class="cls-9"><path class="cls-3" d="M833.41-44.15,935.8-146.55H798.19l68.8-68.8H729.39l68.8-68.8h-344l68.92,68.92H385.37l68.69,68.68H316.57L419-44.15,316.57,58.24H454.06l-68.69,68.69H523.09l-68.92,68.92h344L729.39,127H867l-68.8-68.8H935.8Zm-275.1,0,67.93-67.94,67.93,67.94L626.24,23.78Z"/><path class="cls-4" d="M695,23.84h137.6L763.79-45l68.8-68.8H695l68.8-68.8H488.58l68.8,68.8H419.77L488.58-45,419.77,23.84H557.38l-68.8,68.8H763.79L695,23.84ZM626.18-45Z"/><polygon class="cls-5" points="591.78 -10.56 626.18 23.84 557.38 23.84 591.78 -10.56"/><polygon class="cls-6" points="660.59 -10.56 694.99 23.84 626.18 23.84 660.59 -10.56"/><polygon class="cls-7" points="626.18 23.84 660.59 58.24 591.78 58.24 626.18 23.84"/><polygon class="cls-4" points="626.18 92.64 694.99 161.44 557.38 161.44 626.18 92.64"/><path class="cls-3" d="M833.41,749.39,935.8,647H798.19L867,578.19H729.39l68.8-68.8h-344l68.92,68.92H385.37L454.06,647H316.57L419,749.39,316.57,851.78H454.06l-68.69,68.69H523.09l-68.92,68.92h344l-68.8-68.8H867l-68.8-68.81H935.8Zm-275.1,0,67.93-67.93,67.93,67.93-67.93,67.93Z"/><path class="cls-4" d="M695,817.38h137.6l-68.8-68.8,68.8-68.81H695l68.8-68.8H488.58l68.8,68.8H419.77l68.81,68.81-68.81,68.8H557.38l-68.8,68.8H763.79L695,817.38Zm-68.81-68.8Z"/><polygon class="cls-7" points="660.59 714.18 626.18 679.77 694.99 679.77 660.59 714.18"/><polygon class="cls-6" points="591.78 714.18 557.38 679.77 626.18 679.77 591.78 714.18"/><polygon class="cls-5" points="626.18 679.77 591.78 645.37 660.59 645.37 626.18 679.77"/><polygon class="cls-4" points="626.18 610.97 557.38 542.17 694.99 542.17 626.18 610.97"/><path class="cls-3" d="M-444.47,457.18h137.61l-68.8,68.8h137.6l-68.8,68.8h344l-68.92-68.92H106L37.27,457.18H174.76L72.37,354.78,174.76,252.39H37.27L106,183.7H-31.76l68.92-68.92h-344l68.8,68.81h-137.6l68.8,68.8H-444.47l102.4,102.39Zm309.56-34.46-67.93-67.94,67.93-67.93L-67,354.78Z"/><path class="cls-4" d="M-203.65,422.77l-68.81,68.81H2.76L-66,422.77H71.56L2.76,354l68.8-68.8H-66L2.76,216.36H-272.46l68.81,68.81H-341.26l68.8,68.8-68.8,68.8Zm68.8-68.8Z"/><rect class="cls-5" x="150.44" y="330.46" width="48.65" height="48.65" transform="translate(-199.68 227.49) rotate(-45)"/></g></g></svg>