<svg id="javascript-icon" xmlns="http://www.w3.org/2000/svg" viewBox="0 0 235.33 235.33"><defs><style>.cls-1{fill:#3a3a3a;stroke:#f2e581;stroke-miterlimit:10;stroke-width:2px;}</style></defs><path class="cls-1" d="M33.52,33.73V267.06H266.86V33.73Zm127,182c0,22.7-13.33,33.07-32.76,33.07-17.55,0-27.71-9.06-32.91-20.05l17.86-10.79c3.44,6.1,6.56,11.25,14.11,11.25,7.19,0,11.78-2.81,11.78-13.8V140.86H160.5v74.85Zm51.88,33.07c-20.37,0-33.54-9.69-39.95-22.4l17.86-10.31c4.69,7.66,10.84,13.33,21.62,13.33,9.06,0,14.89-4.53,14.89-10.83,0-7.5-5.93-10.16-16-14.58l-5.46-2.35C189.51,194.92,179,186.43,179,168.57c0-16.46,12.56-29,32.09-29,14,0,24,4.85,31.14,17.55L225.19,168.1c-3.75-6.72-7.81-9.37-14.11-9.37s-10.47,4.06-10.47,9.37c0,6.56,4.06,9.22,13.49,13.33l5.46,2.35c18.65,8,29.12,16.14,29.12,34.48,0,19.68-15.52,30.52-36.3,30.52Z" transform="translate(-32.52 -32.73)"/></svg>