<svg id="jquery-icon" xmlns="http://www.w3.org/2000/svg" viewBox="0 0 245.87 234.92"><defs><style>.cls-1{fill:none;stroke:#7da3d1;stroke-miterlimit:10;stroke-width:2px;}</style></defs><path class="cls-1" d="M152.13,233.63c-1.61-.37-3.17-.88-4.74-1.34q-2.89-.85-5.75-1.85l-.63-.22c-1.35-.48-2.69-1-4-1.5l-1.13-.44q-2.19-.87-4.35-1.8l-.87-.39c-1.23-.56-2.45-1.13-3.67-1.71l-1.07-.51c-1-.46-1.9-1-2.83-1.44-.64-.33-1.27-.64-1.9-1-1.14-.62-2.28-1.26-3.41-1.91-.37-.22-.76-.41-1.15-.64q-2.23-1.3-4.43-2.7l-1.19-.8q-1.59-1-3.15-2.1c-.34-.22-.68-.48-1-.71-1-.71-2-1.42-3-2.15l-1.32-1c-.91-.68-1.81-1.39-2.69-2.1l-1.2-1c-1.13-.94-2.25-1.86-3.36-2.83l-.36-.3c-1.2-1-2.37-2.12-3.53-3.21l-1-.94c-.86-.82-1.7-1.65-2.53-2.49l-1-1q-1.58-1.62-3.1-3.29l-.15-.16c-1.08-1.17-2.12-2.37-3.15-3.59l-.83-1c-2-2.37-3.89-4.82-5.71-7.32C50.31,148.05,41.82,103.61,60.7,67.11L44,88.34C22.53,119.16,25.2,159.25,41.57,192c.39.79.8,1.56,1.21,2.34.26.48.49,1,.76,1.47l.48.85c.27.52.57,1,.84,1.52.51.9,1,1.79,1.56,2.68.87,1.46,1.78,2.89,2.71,4.3.26.4.51.81.78,1.2q1.29,1.91,2.62,3.79l.08.1.44.6q1.59,2.22,3.3,4.33c.72.92,1.46,1.82,2.21,2.72l.85,1c1,1.2,2.08,2.4,3.15,3.58l.12.14q3.21,3.48,6.64,6.76l1,1Q72,232,73.77,233.5l0,0,.6.5c1,.89,2.07,1.77,3.12,2.64l1.29,1q2,1.57,4,3.09t4,2.84l.29.2c.92.65,1.88,1.25,2.83,1.87l1.22.82c1.46.92,2.94,1.84,4.43,2.72l1.23.69c1.09.63,2.2,1.25,3.32,1.87.6.32,1.23.63,1.84.94.78.41,1.58.84,2.38,1.24l.54.27,1,.47c1.25.59,2.51,1.19,3.78,1.75l.79.36c1.45.63,2.92,1.25,4.4,1.83.35.15.71.28,1.07.42,1.37.52,2.76,1.05,4.16,1.53l.52.19c1.53.54,3.08,1,4.63,1.51l1.11.34A45.88,45.88,0,0,0,131.1,264c103.68,18.91,133.8-62.31,133.8-62.31-25.29,33-70.19,41.64-112.74,32Zm-37.35-84c2.32,3.34,4.9,7.29,8,10,1.12,1.23,2.3,2.43,3.49,3.62l.91.9c1.16,1.13,2.34,2.22,3.55,3.3l.15.13,0,0c1.35,1.18,2.75,2.32,4.15,3.43l.95.74c1.42,1.09,2.86,2.15,4.34,3.17l.13.1c.66.45,1.33.87,2,1.31.32.21.63.43.95.63,1.05.67,2.13,1.34,3.21,2l.45.26c.94.55,1.9,1.08,2.85,1.59.34.2.68.36,1,.53l2,1,.3.13c1.37.68,2.75,1.32,4.16,1.94l.91.37c1.13.49,2.26.95,3.4,1.39l1.45.54c1,.39,2.07.74,3.13,1.08l1.41.46a35.25,35.25,0,0,0,4.51,1.31c80.05,13.26,98.54-48.38,98.54-48.38-16.66,24-48.93,35.44-83.36,26.51-1.52-.41-3-.84-4.53-1.31l-1.37-.45c-1.06-.34-2.12-.71-3.17-1.09l-1.43-.54c-1.14-.44-2.28-.9-3.41-1.38l-.92-.38c-1.41-.62-2.81-1.26-4.19-1.94-.71-.34-1.39-.71-2.09-1.06l-1.21-.63c-.89-.48-1.77-1-2.64-1.49l-.64-.36c-1.08-.63-2.15-1.29-3.21-1.95l-1-.65c-.7-.45-1.39-.91-2.08-1.37-1.46-1-2.9-2.08-4.32-3.17l-1-.76c-15.06-11.9-27-28.16-32.69-46.6-6-19.12-4.67-40.59,5.64-58L110.46,62.37C95,84.68,95.8,114.55,107.89,138.16a101.44,101.44,0,0,0,6.87,11.45ZM199.16,122c.66.25,1.32.47,2,.69l.88.28a24.28,24.28,0,0,0,2.85.82c44.2,8.54,56.19-22.69,59.39-27.28-10.51,15.12-28.15,18.75-49.81,13.49a64.82,64.82,0,0,1-11.47-4.2,63.67,63.67,0,0,1-10.91-6.66c-19.38-14.69-31.42-42.75-18.78-65.6L166.45,43c-9.14,13.45-10,30.16-3.7,45,6.69,15.78,20.4,28.14,36.39,34Z" transform="translate(-27.59 -32.94)"/></svg>