<svg id="linkedin-icon" xmlns="http://www.w3.org/2000/svg" viewBox="0 0 150 150"><defs><style>.cls-1{fill:#fff;}</style></defs><path class="cls-1" d="M214.19,74.79H85.58A10.76,10.76,0,0,0,74.9,85.6V214a10.77,10.77,0,0,0,10.68,10.82H214.19A10.79,10.79,0,0,0,224.9,214V85.6A10.78,10.78,0,0,0,214.19,74.79ZM120.24,203.36H98V131.78h22.27v71.58ZM109.12,122A12.89,12.89,0,1,1,122,109.11,12.9,12.9,0,0,1,109.12,122Zm94.45,81.36H181.34V168.54c0-8.3-.17-19-11.55-19-11.59,0-13.36,9-13.36,18.39v35.42H134.2V131.78h21.33v9.77h.3c3-5.62,10.24-11.55,21.06-11.55,22.5,0,26.68,14.83,26.68,34.12Z" transform="translate(-74.9 -74.79)"/></svg>