<svg id="mongodb-icon" xmlns="http://www.w3.org/2000/svg" viewBox="0 0 106.73 238.51"><defs><style>.cls-1,.cls-2,.cls-3{fill:none;stroke-miterlimit:10;stroke-width:2px;}.cls-1{stroke:#93e59b;}.cls-2{stroke:#d7e2e0;}.cls-3{stroke:#61c68d;}</style></defs><path class="cls-1" d="M156.06,47.32a115.13,115.13,0,0,1-7.15-14c-.34,4.82-1,7.86-5.07,11.51-8.23,7.33-43.14,35.78-46.08,97.4C95,199.69,140,235.11,145.93,238.77" transform="translate(-96.64 -29.15)"/><path class="cls-2" d="M150.77,208.18c-1.13,14.22-1.94,22.48-4.81,30.61,0,0,1.88,13.54,3.21,27.88h4.69a258.13,258.13,0,0,1,5.11-30" transform="translate(-96.64 -29.15)"/><path class="cls-3" d="M159,236.65h0c-6.13-2.83-7.91-16.1-8.18-28.47a583.11,583.11,0,0,0,1.33-61.3c-.33-10.73.15-99.35-2.65-112.33a108.41,108.41,0,0,0,6.6,12.76c6.53,10.22,32.16,24.65,44.45,78.88C210.08,182.12,180.62,221.68,159,236.65Z" transform="translate(-96.64 -29.15)"/></svg>