<svg id="mysql-icon" xmlns="http://www.w3.org/2000/svg" viewBox="0 0 239.7 235.75"><defs><style>.cls-1{fill:none;stroke:#7db5d1;stroke-miterlimit:10;stroke-width:2px;fill-rule:evenodd;}</style></defs><path class="cls-1" d="M90,77.53c-1-1.62-3.07-2.42-4.37-3.72L79.33,75c1.3,2.58,3.57,4.37,5.17,6.63,1.31,2.59,2.44,5.16,3.73,7.75l.31-.32C90.82,87.4,92,84.81,92,80.92,91,79.79,90.82,78.66,90,77.53Z" transform="translate(-30.6 -32.83)"/><path class="cls-1" d="M266.71,261.5c-1.61-1.61-3.23-3.07-4.85-4.68a77,77,0,0,0-16.81-16.32c-5.18-3.57-16.5-8.42-18.59-14.38l10.83-2.94c5.49-1.45,10.5-1.12,16.16-2.57,2.59-.65,5.17-1.47,7.77-2.26v-1.46c-2.92-2.91-5-6.8-8.09-9.54a217.15,217.15,0,0,0-26.67-19.89c-5-3.23-11.49-5.32-16.83-8.08-1.93-1-5.16-1.45-6.29-3.08-2.91-3.55-4.54-8.23-6.64-12.44-4.68-8.88-9.21-18.74-13.25-28.13-2.91-6.3-4.69-12.6-8.24-18.43-16.66-27.49-34.76-44.13-62.57-60.46-6-3.4-13.09-4.85-20.69-6.63-4-.17-8.08-.49-12.12-.64-2.6-1.14-5.19-4.22-7.45-5.67-9.22-5.82-33-18.42-39.76-1.78C28.25,52.64,39.08,63,42.8,68.32,45.55,72,49.11,76.24,51,80.44c1.13,2.75,1.46,5.66,2.6,8.57,2.58,7.11,5,15,8.4,21.67a76.94,76.94,0,0,0,6,10c1.3,1.79,3.56,2.59,4,5.51-2.25,3.23-2.43,8.08-3.72,12.12-5.82,18.27-3.56,40.9,4.69,54.32,2.58,4,8.73,12.93,17,9.53,7.27-2.9,5.66-12.12,7.76-20.2l1.12-4.2c2.26,4.52,4.53,8.88,6.64,13.42,5,7.91,13.74,16.16,21,21.65,3.87,2.92,6.94,7.92,11.79,9.71l-.32-.49c-1-1.45-2.42-2.1-3.72-3.23a80.25,80.25,0,0,1-8.41-9.7,208.47,208.47,0,0,1-18.1-29.42c-2.59-5-4.85-10.52-7-15.53-1-1.93-1-4.85-2.59-5.81-2.43,3.55-6,6.62-7.76,11-3.07,7-3.39,15.52-4.53,24.42-.32.58-1,.23-.64.32-5.17-1.29-6.95-6.63-8.9-11.14C71.58,171.46,70.76,153,75,139.77c1.13-3.39,6-14.06,4-17.29-1-3.09-4.2-4.85-6-7.28a63.85,63.85,0,0,1-5.81-10.35c-3.89-9-5.84-19.07-10-28.12-1.94-4.22-5.34-8.58-8.08-12.45-3.08-4.37-6.47-7.44-8.9-12.61-.8-1.78-1.93-4.69-.64-6.63a2.59,2.59,0,0,1,2.27-2.11c2.09-1.77,8.07.49,10.17,1.46a81.65,81.65,0,0,1,16,8.08c2.26,1.62,4.69,4.69,7.59,5.51H79c5.17,1.12,11,.31,15.85,1.77A104,104,0,0,1,118.14,70.9a143.53,143.53,0,0,1,50.43,55.3c1.94,3.71,2.76,7.11,4.53,11,3.4,7.94,7.61,16,11,23.77s6.64,15.35,11.49,21.67c2.42,3.39,12.12,5.17,16.49,6.95,3.22,1.45,8.24,2.74,11.16,4.52,5.49,3.39,11,7.27,16.16,11,2.58,1.94,10.67,6,11.15,9.21-12.94-.32-23,1-31.36,4.53-2.43,1-6.3,1-6.63,4a34.31,34.31,0,0,0,2.59,5.18c1.94,3.23,5.33,7.59,8.41,9.86,3.39,2.59,6.79,5.16,10.35,7.43,6.3,3.89,13.41,6.15,19.55,10,3.56,2.26,7.11,5.17,10.68,7.6,1.77,1.29,2.89,3.4,5.16,4.2v-.49C268.16,265.23,267.84,263.13,266.71,261.5Z" transform="translate(-30.6 -32.83)"/></svg>