<svg id="nodejs-icon" xmlns="http://www.w3.org/2000/svg" viewBox="0 0 208.93 235.33"><defs><style>.cls-1{fill:none;stroke:#b9d89a;stroke-miterlimit:10;stroke-width:2px;}</style></defs><path class="cls-1" d="M149.88,266.63a17.89,17.89,0,0,1-9-2.4l-28.55-16.89c-4.26-2.38-2.18-3.23-.77-3.72a56.85,56.85,0,0,0,12.91-5.87,2.21,2.21,0,0,1,2.12.16l21.93,13a2.82,2.82,0,0,0,2.65,0l85.51-49.36a2.7,2.7,0,0,0,1.3-2.31V100.59a2.77,2.77,0,0,0-1.32-2.36L151.21,48.92a2.68,2.68,0,0,0-2.63,0L63.13,98.25a2.74,2.74,0,0,0-1.36,2.34v98.68a2.62,2.62,0,0,0,1.35,2.28l23.43,13.54C99.26,221.44,107,214,107,206.44V109a2.46,2.46,0,0,1,2.48-2.46h10.84a2.46,2.46,0,0,1,2.48,2.46v97.43c0,17-9.23,26.69-25.32,26.69-4.94,0-8.83,0-19.69-5.35L55.41,214.87a18.06,18.06,0,0,1-9-15.6V100.59a18,18,0,0,1,9-15.58l85.5-49.41a18.74,18.74,0,0,1,18,0L244.38,85a18,18,0,0,1,9,15.58v98.68a18.1,18.1,0,0,1-9,15.6l-85.5,49.36A17.84,17.84,0,0,1,149.88,266.63Z" transform="translate(-45.44 -32.3)"/><path class="cls-1" d="M176.29,198.65c-37.42,0-45.25-17.17-45.25-31.58a2.45,2.45,0,0,1,2.47-2.46h11.05A2.47,2.47,0,0,1,147,166.7c1.67,11.25,6.64,16.93,29.27,16.93,18,0,25.68-4.07,25.68-13.63,0-5.51-2.17-9.6-30.16-12.34-23.4-2.31-37.87-7.48-37.87-26.2,0-17.25,14.54-27.54,38.92-27.54,27.39,0,40.95,9.51,42.67,29.91a2.49,2.49,0,0,1-2.47,2.69H202a2.46,2.46,0,0,1-2.4-1.93C196.9,122.74,190.43,119,172.86,119c-19.66,0-22,6.85-22,12,0,6.22,2.7,8,29.25,11.55,26.28,3.47,38.76,8.39,38.76,26.86C218.92,188,203.39,198.65,176.29,198.65Z" transform="translate(-45.44 -32.3)"/></svg>