<svg id="python-icon" xmlns="http://www.w3.org/2000/svg" viewBox="0 0 235.33 235.33"><defs><style>.cls-1,.cls-2{fill:none;stroke-miterlimit:10;stroke-width:2px;}.cls-1{stroke:#f2e581;}.cls-2{stroke:#80b9e0;}</style></defs><path class="cls-1" d="M262.61,121c-4-16.09-11.62-28.22-27.81-28.22H213.91v24.68c0,19.17-16.25,35.31-34.79,35.31H123.5c-15.21,0-27.81,13-27.81,28.28v53c0,15.11,13.12,24,27.81,28.28,17.6,5.16,34.53,6.1,55.62,0,14-4.06,27.81-12.24,27.81-28.28V212.91H151.36v-7.09H234.8c16.19,0,22.18-11.3,27.81-28.22,5.83-17.45,5.57-34.22,0-56.57Z" transform="translate(-32.55 -32.28)"/><path class="cls-1" d="M182.61,227a10.6,10.6,0,1,1-10.47,10.57A10.53,10.53,0,0,1,182.61,227Z" transform="translate(-32.55 -32.28)"/><path class="cls-2" d="M121,145.83h55.62a28,28,0,0,0,27.81-28.28V64.47c0-15.1-12.71-26.4-27.81-28.95a171.42,171.42,0,0,0-55.62,0c-23.54,4.17-27.82,12.86-27.82,29V85.72h55.68v7.09H72.25c-16.2,0-30.36,9.74-34.79,28.22-5.1,21.2-5.31,34.43,0,56.57,4,16.45,13.38,28.22,29.58,28.22H86.16V180.41C86.16,162,102,145.83,121,145.83Z" transform="translate(-32.55 -32.28)"/><path class="cls-2" d="M117.46,71.56A10.6,10.6,0,1,1,127.92,61,10.53,10.53,0,0,1,117.46,71.56Z" transform="translate(-32.55 -32.28)"/></svg>