<svg id="react-icon" xmlns="http://www.w3.org/2000/svg" viewBox="0 0 268.65 235.33"><defs><style>.cls-1{fill:#3a3a3a;stroke:#9edbe5;stroke-miterlimit:10;stroke-width:2px;}</style></defs><path class="cls-1" d="M234.84,108.86c-2.82-.94-5.63-1.82-8.44-2.66.47-1.92.89-3.85,1.3-5.78,6.41-31,2.19-56-12-64.21-13.7-7.87-36,.31-58.64,20-2.24,1.92-4.43,3.95-6.51,6-1.41-1.36-2.87-2.71-4.32-4-23.7-21-47.45-29.89-61.67-21.61-13.64,7.92-17.7,31.41-12,60.78.58,2.92,1.2,5.78,1.93,8.7-3.33.93-6.61,2-9.69,3.07C37,118.75,17,134,17,149.69c0,16.25,21.25,32.55,50.15,42.45,2.34.78,4.69,1.56,7.08,2.24-.78,3.12-1.46,6.19-2.08,9.37-5.47,28.9-1.2,51.82,12.45,59.68,14.06,8.13,37.7-.2,60.72-20.36,1.83-1.61,3.65-3.28,5.47-5,2.29,2.24,4.69,4.37,7.08,6.46,22.29,19.16,44.32,26.92,57.92,19.06,14.06-8.13,18.64-32.76,12.71-62.76q-.71-3.43-1.57-7c1.67-.47,3.28-1,4.9-1.51,30.05-10,51.82-26,51.82-42.55,0-15.78-20.52-31.09-48.85-40.83ZM164.37,64.64c19.38-16.87,37.45-23.49,45.68-18.75,8.8,5.06,12.18,25.47,6.66,52.29-.36,1.77-.73,3.49-1.19,5.21a267.23,267.23,0,0,0-35.05-5.52,263.31,263.31,0,0,0-22.19-27.65C160.31,68.29,162.29,66.47,164.37,64.64ZM104.12,176.72c2.65,4.53,5.36,9.06,8.22,13.49a236.92,236.92,0,0,1-24.16-3.91,240.29,240.29,0,0,1,8.49-23.17c2.39,4.58,4.84,9.11,7.45,13.59ZM88.33,114.07c7.5-1.67,15.47-3,23.75-4.07-2.76,4.33-5.47,8.75-8,13.23s-5,9-7.39,13.54c-3.28-7.76-6-15.36-8.34-22.7ZM102.6,150c3.44-7.19,7.19-14.22,11.15-21.14s8.23-13.65,12.71-20.26q11.72-.87,23.9-.89c8.13,0,16.15.31,23.91.89q6.63,9.84,12.65,20.15t11.3,21Q193,160.53,187,171c-4,6.93-8.18,13.65-12.61,20.31-7.76.58-15.83.84-24,.84s-16.09-.26-23.75-.73q-6.8-9.93-12.81-20.31c-4-6.93-7.71-14-11.2-21.15Zm94.06,26.67c2.66-4.59,5.16-9.22,7.61-13.91a242.3,242.3,0,0,1,8.8,23.07A230.43,230.43,0,0,1,188.59,190c2.81-4.38,5.47-8.86,8.07-13.33Zm7.5-39.85c-2.45-4.58-4.95-9.16-7.55-13.64s-5.21-8.8-8-13.13a241.56,241.56,0,0,1,23.91,4.17A230.06,230.06,0,0,1,204.16,136.77ZM150.47,78.18a228.23,228.23,0,0,1,15.41,18.65c-10.31-.47-20.67-.47-31,0C140,90.11,145.26,83.86,150.47,78.18ZM90.05,46.26c8.75-5.11,28.18,2.19,48.65,20.31,1.3,1.15,2.6,2.4,4,3.65a263.42,263.42,0,0,0-22.34,27.65,273.09,273.09,0,0,0-35,5.42c-.67-2.66-1.25-5.37-1.82-8.08C78.6,70,81.82,51,90.05,46.26ZM77.29,183.54c-2.18-.62-4.32-1.3-6.45-2-11.1-3.49-23.7-9-32.82-16.25a23.36,23.36,0,0,1-9.79-15.57c0-9.53,16.46-21.72,40.21-30,3-1,6-2,9-2.86A276.43,276.43,0,0,0,90.21,150,286,286,0,0,0,77.29,183.54Zm60.73,51A95.2,95.2,0,0,1,108.65,253a23,23,0,0,1-18.39.67c-8.28-4.79-11.72-23.17-7-47.91.57-2.92,1.2-5.83,1.93-8.7a261,261,0,0,0,35.36,5.11A277,277,0,0,0,143,230c-1.67,1.61-3.33,3.17-5,4.63Zm12.76-12.65A246.25,246.25,0,0,1,135,203c5,.21,10.15.31,15.36.31,5.37,0,10.63-.1,15.84-.36A228.18,228.18,0,0,1,150.78,221.93Zm68.07,15.62a23.19,23.19,0,0,1-8.59,16.3c-8.29,4.79-25.94-1.46-45-17.81-2.19-1.88-4.38-3.91-6.62-6a256.57,256.57,0,0,0,22-27.91,257.71,257.71,0,0,0,35.52-5.47c.52,2.13,1,4.27,1.41,6.35a95.13,95.13,0,0,1,1.3,34.53Zm9.48-56c-1.46.47-2.92.94-4.43,1.36a264.22,264.22,0,0,0-13.28-33.23,262.56,262.56,0,0,0,12.76-32.76c2.71.78,5.31,1.62,7.81,2.45,24.27,8.33,41.3,20.73,41.3,30.21C272.49,159.79,254.32,173,228.33,181.56Zm-78-7.81a23.85,23.85,0,1,0-23.85-23.85,23.85,23.85,0,0,0,23.85,23.85Z" transform="translate(-16.04 -32.24)"/></svg>