<svg id="screens-overlay" xmlns="http://www.w3.org/2000/svg" xmlns:xlink="http://www.w3.org/1999/xlink" viewBox="0 0 586 400"><defs><style>.cls-1,.cls-5{fill:none;}.cls-2{clip-path:url(#clip-path);}.cls-3{fill:#4d4d4d;}.cls-3,.cls-5{stroke:#fff;stroke-miterlimit:10;}.cls-4{fill:#fff;}.cls-6{fill:#3a3a3a;}.cls-7{fill:gray;}</style><clipPath id="clip-path"><rect class="cls-1" x="2" y="13.01" width="482.29" height="315.02" rx="4.79"/></clipPath></defs><g class="cls-2"><rect class="cls-3" x="2" y="13" width="482.29" height="13.83"/></g><ellipse class="cls-4" cx="15.85" cy="19.81" rx="2.82" ry="2.62"/><ellipse class="cls-4" cx="33.17" cy="19.81" rx="2.82" ry="2.62"/><ellipse class="cls-4" cx="24.51" cy="19.81" rx="2.82" ry="2.62"/><path class="cls-5" d="M445.26,118.26a4.51,4.51,0,0,1,4.55-4.44h34.48V17.68A4.73,4.73,0,0,0,479.5,13H6.79A4.73,4.73,0,0,0,2,17.68v298a4.73,4.73,0,0,0,4.79,4.67H445.26Z"/><rect class="cls-6" x="445.26" y="116.37" width="129.07" height="12.35"/><path class="cls-3" d="M567.51,93.24h-115a15.4,15.4,0,0,0-15.36,15.36v263A15.4,15.4,0,0,0,452.51,387h115a15.4,15.4,0,0,0,15.36-15.36v-263A15.4,15.4,0,0,0,567.51,93.24Zm6.83,266a4.57,4.57,0,0,1-4.55,4.55h-120a4.57,4.57,0,0,1-4.55-4.55V120.89a4.57,4.57,0,0,1,4.55-4.55h120a4.57,4.57,0,0,1,4.55,4.55Z"/><circle class="cls-3" cx="459.63" cy="104.88" r="2.71"/><rect class="cls-7" x="474.62" y="104.26" width="70.78" height="1.23"/><rect class="cls-7" x="474.45" y="374.94" width="70.78" height="1.23"/><polygon class="cls-4" points="554.07 120.54 554.07 119.76 552.5 119.76 552.5 120.54 551.72 120.54 551.72 125.24 554.85 125.24 554.85 120.54 554.07 120.54"/><polygon class="cls-4" points="548.19 119.76 548.19 125.24 543.1 125.24 548.19 119.76"/><path class="cls-4" d="M538,125.24l3.13-4.3a4.74,4.74,0,0,0-6.26,0Z"/><path class="cls-4" d="M558.29,122.54l.22-2h2.11v.57h-1.57l-.1.94a1.13,1.13,0,0,1,.61-.16,1.1,1.1,0,0,1,.88.36,1.41,1.41,0,0,1,.31,1,1.29,1.29,0,0,1-.35,1,1.27,1.27,0,0,1-.94.35,1.34,1.34,0,0,1-.9-.3,1.12,1.12,0,0,1-.39-.81h.64a.65.65,0,0,0,.2.43.61.61,0,0,0,.44.16.55.55,0,0,0,.47-.22.88.88,0,0,0,.17-.59.85.85,0,0,0-.18-.57.67.67,0,0,0-.52-.21.85.85,0,0,0-.3,0,.79.79,0,0,0-.27.19Z"/><path class="cls-4" d="M561.71,121.5a.37.37,0,0,1,.28.1.35.35,0,0,1,.1.26.34.34,0,0,1-.1.26.44.44,0,0,1-.56,0,.35.35,0,0,1-.11-.26.4.4,0,0,1,.1-.26A.38.38,0,0,1,561.71,121.5Zm0,2.3a.37.37,0,0,1,.28.1.39.39,0,0,1,0,.52.44.44,0,0,1-.56,0,.35.35,0,0,1-.11-.26.4.4,0,0,1,.1-.26A.38.38,0,0,1,561.71,123.8Z"/><path class="cls-4" d="M565.3,122.83a2.16,2.16,0,0,1-.31,1.28,1.13,1.13,0,0,1-1,.43,1.12,1.12,0,0,1-1-.42,2,2,0,0,1-.33-1.24v-.69a2.12,2.12,0,0,1,.31-1.27,1.34,1.34,0,0,1,1.94,0,2,2,0,0,1,.32,1.24Zm-.65-.74a1.56,1.56,0,0,0-.16-.81A.52.52,0,0,0,564,121a.51.51,0,0,0-.47.25,1.59,1.59,0,0,0-.16.76v.89a1.78,1.78,0,0,0,.15.83.57.57,0,0,0,1,0,1.7,1.7,0,0,0,.16-.79Z"/><path class="cls-4" d="M566.06,122.54l.21-2h2.12v.57h-1.57l-.11.94a1.17,1.17,0,0,1,.62-.16,1.08,1.08,0,0,1,.87.36,1.42,1.42,0,0,1,.32,1,1.33,1.33,0,0,1-.35,1,1.29,1.29,0,0,1-.95.35,1.36,1.36,0,0,1-.9-.3,1.15,1.15,0,0,1-.38-.81h.63a.7.7,0,0,0,.21.43.6.6,0,0,0,.44.16.55.55,0,0,0,.47-.22.94.94,0,0,0,.17-.59.8.8,0,0,0-.19-.57.64.64,0,0,0-.51-.21.85.85,0,0,0-.3,0,.73.73,0,0,0-.28.19Z"/></svg>