<svg id="screens-overlay" xmlns="http://www.w3.org/2000/svg" xmlns:xlink="http://www.w3.org/1999/xlink" viewBox="0 0 581.87 374.96"><defs><style>.cls-1,.cls-5{fill:none;}.cls-2{clip-path:url(#clip-path);}.cls-3{fill:#4d4d4d;}.cls-3,.cls-5{stroke:#fff;stroke-miterlimit:10;}.cls-4{fill:#fff;}.cls-6{fill:#3a3a3a;}.cls-7{fill:gray;}</style><clipPath id="clip-path" transform="translate(-30.5 -12.5)"><rect class="cls-1" x="31" y="13.01" width="482.29" height="315.02" rx="4.79"/></clipPath></defs><g class="cls-2"><rect class="cls-3" x="0.5" y="0.5" width="482.29" height="13.83"/></g><ellipse class="cls-4" cx="14.35" cy="7.31" rx="2.82" ry="2.62"/><ellipse class="cls-4" cx="31.67" cy="7.31" rx="2.82" ry="2.62"/><ellipse class="cls-4" cx="23.01" cy="7.31" rx="2.82" ry="2.62"/><path class="cls-5" d="M474.26,120.89a4.57,4.57,0,0,1,4.55-4.55h34.48V17.8A4.78,4.78,0,0,0,508.5,13H35.79A4.78,4.78,0,0,0,31,17.8V323.24A4.79,4.79,0,0,0,35.79,328H474.26Z" transform="translate(-30.5 -12.5)"/><rect class="cls-6" x="443.76" y="103.87" width="129.07" height="12.35"/><path class="cls-3" d="M596.51,93.24h-115a15.4,15.4,0,0,0-15.36,15.36v263A15.4,15.4,0,0,0,481.51,387h115a15.4,15.4,0,0,0,15.36-15.36v-263A15.4,15.4,0,0,0,596.51,93.24Zm6.83,266a4.57,4.57,0,0,1-4.55,4.55h-120a4.57,4.57,0,0,1-4.55-4.55V120.89a4.57,4.57,0,0,1,4.55-4.55h120a4.57,4.57,0,0,1,4.55,4.55Z" transform="translate(-30.5 -12.5)"/><circle class="cls-3" cx="458.13" cy="92.38" r="2.71"/><rect class="cls-7" x="473.12" y="91.76" width="70.78" height="1.23"/><rect class="cls-7" x="472.95" y="362.44" width="70.78" height="1.23"/><polygon class="cls-4" points="552.57 108.04 552.57 107.26 551 107.26 551 108.04 550.22 108.04 550.22 112.74 553.35 112.74 553.35 108.04 552.57 108.04"/><polygon class="cls-4" points="546.69 107.26 546.69 112.74 541.6 112.74 546.69 107.26"/><path class="cls-4" d="M567,125.24l3.13-4.3a4.74,4.74,0,0,0-6.26,0Z" transform="translate(-30.5 -12.5)"/><path class="cls-4" d="M587.29,122.54l.22-2h2.11v.57h-1.57l-.1.94a1.13,1.13,0,0,1,.61-.16,1.1,1.1,0,0,1,.88.36,1.41,1.41,0,0,1,.31,1,1.29,1.29,0,0,1-.35,1,1.27,1.27,0,0,1-.94.35,1.34,1.34,0,0,1-.9-.3,1.12,1.12,0,0,1-.39-.81h.64a.65.65,0,0,0,.2.43.61.61,0,0,0,.44.16.55.55,0,0,0,.47-.22.88.88,0,0,0,.17-.59.85.85,0,0,0-.18-.57.67.67,0,0,0-.52-.21.85.85,0,0,0-.3,0,.79.79,0,0,0-.27.19Z" transform="translate(-30.5 -12.5)"/><path class="cls-4" d="M590.71,121.5a.37.37,0,0,1,.28.1.35.35,0,0,1,.1.26.34.34,0,0,1-.1.26.44.44,0,0,1-.56,0,.35.35,0,0,1-.11-.26.4.4,0,0,1,.1-.26A.38.38,0,0,1,590.71,121.5Zm0,2.3a.37.37,0,0,1,.28.1.39.39,0,0,1,0,.52.44.44,0,0,1-.56,0,.35.35,0,0,1-.11-.26.4.4,0,0,1,.1-.26A.38.38,0,0,1,590.71,123.8Z" transform="translate(-30.5 -12.5)"/><path class="cls-4" d="M594.3,122.83a2.16,2.16,0,0,1-.31,1.28,1.13,1.13,0,0,1-1,.43,1.12,1.12,0,0,1-1-.42,2,2,0,0,1-.33-1.24v-.69a2.12,2.12,0,0,1,.31-1.27,1.34,1.34,0,0,1,1.94,0,2,2,0,0,1,.32,1.24Zm-.65-.74a1.56,1.56,0,0,0-.16-.81A.52.52,0,0,0,593,121a.51.51,0,0,0-.47.25,1.59,1.59,0,0,0-.16.76v.89a1.78,1.78,0,0,0,.15.83.57.57,0,0,0,1,0,1.7,1.7,0,0,0,.16-.79Z" transform="translate(-30.5 -12.5)"/><path class="cls-4" d="M595.06,122.54l.21-2h2.12v.57h-1.57l-.11.94a1.17,1.17,0,0,1,.62-.16,1.08,1.08,0,0,1,.87.36,1.42,1.42,0,0,1,.32,1,1.33,1.33,0,0,1-.35,1,1.29,1.29,0,0,1-.95.35,1.36,1.36,0,0,1-.9-.3,1.15,1.15,0,0,1-.38-.81h.63a.7.7,0,0,0,.21.43.6.6,0,0,0,.44.16.55.55,0,0,0,.47-.22.94.94,0,0,0,.17-.59.8.8,0,0,0-.19-.57.64.64,0,0,0-.51-.21.85.85,0,0,0-.3,0,.73.73,0,0,0-.28.19Z" transform="translate(-30.5 -12.5)"/></svg>