<svg id="shopify-icon" xmlns="http://www.w3.org/2000/svg" viewBox="0 0 206.4 235.5"><defs><style>.cls-1{fill:none;stroke:#b9d89a;stroke-miterlimit:10;stroke-width:2px;fill-rule:evenodd;}</style></defs><g id="Icons"><g id="Black"><path id="Shopify" class="cls-1" d="M197.37,67l8.16,8.13,18.68,1.4a2.24,2.24,0,0,1,2,1.9c.16,1.17,25.35,172.3,25.35,172.3l-61.8,13.44Zm-9.47-6.49c-.4,0-8.11,2.4-8.11,2.4-4.14-12-11.45-23-24.3-23-.35,0-.73,0-1.09,0-3.66-4.86-8.18-7-12.09-7-29.95,0-44.26,37.62-48.74,56.73L72.62,96.28c-6.51,2-6.71,2.26-7.56,8.41-.64,4.65-17.64,136.73-17.64,136.73L180,266.32,187.9,60.53Zm-34.48,9.29v1.31l-23.15,7.2c4.45-17.28,12.81-25.63,20.11-28.78C152.21,54.19,153.42,60.85,153.42,69.82ZM141.48,41.09a6.77,6.77,0,0,1,3.85,1.3c-9.6,4.54-19.89,16-24.23,38.79l-18.29,5.7c5.08-17.41,17.16-45.79,38.67-45.79Zm5.16,101.75a40.59,40.59,0,0,0-17.25-4.15c-13.93,0-14.63,8.78-14.63,11,0,12.09,31.32,16.71,31.32,45,0,22.25-14,36.59-33,36.59-22.73,0-34.35-14.22-34.35-14.22l6.09-20.21s12,10.31,22,10.31a8.92,8.92,0,0,0,9.27-9c0-15.76-25.71-16.46-25.71-42.36,0-21.78,15.57-42.87,47-42.87,12.11,0,18.09,3.49,18.09,3.49Zm14.63-76.58a55.74,55.74,0,0,0-2.67-18.18c6.62.83,11,8.41,13.87,17.12l-11.2,3.49Z" transform="translate(-46.31 -32.02)"/></g></g></svg>